<svg xmlns="http://www.w3.org/2000/svg" width="82" height="64" viewBox="0 0 82 64">
    <path fill="none" fill-rule="evenodd" stroke="#BEBFB9" stroke-width="3" d="M32.678 3.876L3.875 32.678c-.429.43-1.125.43-1.553 0-.43-.429-.43-1.124 0-1.553L31.125 2.32c.429-.428 1.124-.428 1.553 0 .43.43.43 1.125 0 1.555M80 32h0c0 .552-.492 1-1.1 1H38.1c-.607 0-1.1-.448-1.1-1s.493-1 1.1-1h40.8c.608 0 1.1.448 1.1 1M32.678 60.125L3.875 31.322c-.429-.43-1.125-.43-1.553 0-.43.429-.43 1.125 0 1.554l28.803 28.802c.429.43 1.124.43 1.553 0 .43-.429.43-1.125 0-1.553"/>
</svg>
