<svg id="Layer_1" data-name="Layer 1" xmlns="http://www.w3.org/2000/svg" viewBox="0 0 230 95">
  <defs>
  </defs>
  <g>
    <g fill="#1a1a1a">
      <path class="cls-1" d="M39.34,62.31a17.61,17.61,0,0,1-5.61-2.42l2.81-6.3a19.06,19.06,0,0,0,10,3q4.92,0,4.92-2.46A2,2,0,0,0,50,52.18a26.72,26.72,0,0,0-4.51-1.31,43.25,43.25,0,0,1-5.7-1.58,9.51,9.51,0,0,1-3.93-2.7,7.29,7.29,0,0,1-1.64-5,8.63,8.63,0,0,1,1.51-5,10.12,10.12,0,0,1,4.51-3.52,18.64,18.64,0,0,1,7.36-1.3,26.38,26.38,0,0,1,5.88.67,18,18,0,0,1,5.09,2L56,40.76a17.65,17.65,0,0,0-8.38-2.33,7,7,0,0,0-3.71.76,2.26,2.26,0,0,0-1.17,2A2,2,0,0,0,44.09,43a25.24,25.24,0,0,0,4.45,1.25,42.08,42.08,0,0,1,5.72,1.57,10,10,0,0,1,3.93,2.68,7.16,7.16,0,0,1,1.66,5,8.49,8.49,0,0,1-1.51,4.92,10.33,10.33,0,0,1-4.53,3.52,18.31,18.31,0,0,1-7.34,1.32A28.21,28.21,0,0,1,39.34,62.31Z"/>
      <path class="cls-1" d="M91.07,62.61l-.09-16-7.77,13h-3.8L71.68,47V62.61h-7.9V32.39h7L81.44,49.83,91.8,32.39h7l.08,30.22Z"/>
      <path class="cls-1" d="M121,62.31a17.61,17.61,0,0,1-5.61-2.42l2.8-6.3a18.4,18.4,0,0,0,4.71,2.16,18.12,18.12,0,0,0,5.27.82q4.92,0,4.92-2.46a2,2,0,0,0-1.41-1.93,26.15,26.15,0,0,0-4.51-1.31,43.7,43.7,0,0,1-5.7-1.58,9.54,9.54,0,0,1-3.92-2.7,7.24,7.24,0,0,1-1.64-5,8.63,8.63,0,0,1,1.51-5A10.06,10.06,0,0,1,122,33.08a18.61,18.61,0,0,1,7.36-1.3,26.36,26.36,0,0,1,5.87.67,18,18,0,0,1,5.1,2l-2.64,6.34a17.64,17.64,0,0,0-8.37-2.33,7.08,7.08,0,0,0-3.72.76,2.27,2.27,0,0,0-1.16,2A2,2,0,0,0,125.78,43a25,25,0,0,0,4.45,1.25A42.49,42.49,0,0,1,136,45.79a10,10,0,0,1,3.93,2.68,7.21,7.21,0,0,1,1.66,5A8.56,8.56,0,0,1,140,58.38a10.31,10.31,0,0,1-4.54,3.52,18.28,18.28,0,0,1-7.34,1.32A28.13,28.13,0,0,1,121,62.31Z"/>
      <path class="cls-1" d="M165.71,56.74H152.93l-2.37,5.87h-8.72l13.34-30.22h8.42L177,62.61h-8.89Zm-2.5-6.3-3.89-9.68-3.88,9.68Z"/>
      <path class="cls-1" d="M179.4,32.39H188V55.83h14.42v6.78h-23Z"/>
      <path class="cls-1" d="M230,56v6.6H205.74V32.39h23.7V39H214.2v5.1h13.43v6.39H214.2V56Z"/>
    </g>
    <g>
      <rect fill="#ffb408" class="cls-2" x="63.94" y="73.91" width="165.92" height="19.68"/>
      <g>
        <g fill="#1a1a1a">
          <path class="cls-1" d="M77.16,86.51a2.93,2.93,0,0,0,2.41-1.17l1.29,1.32a4.84,4.84,0,0,1-7,.41,4.39,4.39,0,0,1-1.34-3.3,4.46,4.46,0,0,1,1.36-3.33,4.6,4.6,0,0,1,3.34-1.33,4.75,4.75,0,0,1,3.7,1.68L79.66,82.2A2.9,2.9,0,0,0,77.3,81a2.73,2.73,0,0,0-1.93.74,2.57,2.57,0,0,0-.8,2,2.68,2.68,0,0,0,.76,2A2.46,2.46,0,0,0,77.16,86.51Z"/>
          <path class="cls-1" d="M94.92,88.28l-.84-1.94H90.32l-.83,1.94H87.36l3.88-9h1.93l3.88,9ZM92.21,82l-1.13,2.6h2.25Z"/>
          <path class="cls-1" d="M111.52,82.29a2.64,2.64,0,0,1-1.71,2.78l2.27,3.21h-2.46l-2-2.86h-1.39v2.86h-2v-9h3.4a4.84,4.84,0,0,1,3,.71A2.7,2.7,0,0,1,111.52,82.29Zm-2.42,1.06a1.34,1.34,0,0,0,.38-1.06,1.12,1.12,0,0,0-.39-1,2.42,2.42,0,0,0-1.34-.27h-1.51v2.66h1.47A2.13,2.13,0,0,0,109.1,83.35Z"/>
        </g>
        <g fill="#1a1a1a">
          <path class="cls-1" d="M131.67,81.1a.79.79,0,0,0-.29.63.7.7,0,0,0,.36.62,6.12,6.12,0,0,0,1.63.55,4.57,4.57,0,0,1,2,.94,2.32,2.32,0,0,1,.7,1.83,2.42,2.42,0,0,1-.9,2,3.61,3.61,0,0,1-2.38.75,5.49,5.49,0,0,1-3.84-1.58l1.2-1.46a4.21,4.21,0,0,0,2.68,1.27,1.37,1.37,0,0,0,.86-.24.79.79,0,0,0,0-1.28,4.39,4.39,0,0,0-1.33-.48,5.81,5.81,0,0,1-2.29-1,2.67,2.67,0,0,1,.2-3.84,3.69,3.69,0,0,1,2.29-.69,5.65,5.65,0,0,1,1.79.3,4.91,4.91,0,0,1,1.57.88l-1,1.46a3.93,3.93,0,0,0-2.41-.89A1.22,1.22,0,0,0,131.67,81.1Z"/>
          <path class="cls-1" d="M150.38,79.31v1.78h-4.46v1.85h4v1.71h-4v1.86h4.6v1.77h-6.6v-9Z"/>
          <path class="cls-1" d="M165.74,82.29A2.64,2.64,0,0,1,164,85.07l2.27,3.21h-2.46l-2-2.86h-1.38v2.86h-2v-9h3.39a4.9,4.9,0,0,1,3,.71A2.72,2.72,0,0,1,165.74,82.29Zm-2.41,1.06a1.34,1.34,0,0,0,.37-1.06,1.12,1.12,0,0,0-.39-1A2.42,2.42,0,0,0,162,81h-1.5v2.66h1.46A2.18,2.18,0,0,0,163.33,83.35Z"/>
          <path class="cls-1" d="M177.09,85l2.29-5.71h2.16l-3.6,9h-1.69l-3.61-9h2.17Z"/>
          <path class="cls-1" d="M188.77,79.31h2v9h-2Z"/>
          <path class="cls-1" d="M203.25,86.51a3,3,0,0,0,2.41-1.17l1.28,1.32a4.84,4.84,0,0,1-7,.41,4.42,4.42,0,0,1-1.34-3.3A4.47,4.47,0,0,1,200,80.44a4.59,4.59,0,0,1,3.34-1.33A4.73,4.73,0,0,1,207,80.79l-1.24,1.41A2.9,2.9,0,0,0,203.39,81a2.71,2.71,0,0,0-1.93.74,2.53,2.53,0,0,0-.8,2,2.72,2.72,0,0,0,.75,2A2.5,2.5,0,0,0,203.25,86.51Z"/>
          <path class="cls-1" d="M221.14,79.31v1.78h-4.46v1.85h4v1.71h-4v1.86h4.61v1.77h-6.61v-9Z"/>
        </g>
      </g>
    </g>
    <path fill="#1a1a1a" class="cls-1" d="M72.84,7.78l-4.91,3.79A41.1,41.1,0,0,0,58,7.49l-.78-6.18a47.26,47.26,0,0,0-20,0l-.78,6.18a40.59,40.59,0,0,0-9.9,4.1l-4.9-3.81A46.7,46.7,0,0,0,7.53,21.93l3.8,4.9a41,41,0,0,0-4.09,9.9l-6.18.76a47.79,47.79,0,0,0,0,20l6.18.76a41,41,0,0,0,4.09,9.9l-3.8,4.9A46.7,46.7,0,0,0,21.68,87.22l4.9-3.8a41,41,0,0,0,9.9,4.11l.78,6.16a47.2,47.2,0,0,0,19.94,0v-20a27.78,27.78,0,0,1-15.87,1.2A28,28,0,0,1,23.69,62.68a27.62,27.62,0,0,1-3.85-9.25,28.22,28.22,0,0,1,0-11.86A28.22,28.22,0,0,1,32.08,23.92,27.94,27.94,0,0,1,59,22H86.91l.07-.09A46.55,46.55,0,0,0,72.84,7.78Z"/>
  </g>
</svg>
