<svg xmlns="http://www.w3.org/2000/svg" width="82" height="64" viewBox="0 0 82 64">
    <path fill="none" fill-rule="evenodd" stroke="#BEBFB9" stroke-width="3" d="M49.322 3.876l28.803 28.802c.429.43 1.125.43 1.553 0 .43-.429.43-1.124 0-1.553L50.875 2.32c-.429-.428-1.124-.428-1.553 0-.43.43-.43 1.125 0 1.555M2 32h0c0 .552.492 1 1.1 1h40.8c.607 0 1.1-.448 1.1-1s-.493-1-1.1-1H3.1c-.608 0-1.1.448-1.1 1m47.322 28.125l28.803-28.803c.429-.43 1.125-.43 1.553 0 .43.429.43 1.125 0 1.554L50.875 61.678c-.429.43-1.124.43-1.553 0-.43-.429-.43-1.125 0-1.553"/>
</svg>
